# xmcd
#
# Track frame offsets:
#	150
#	22827
#	72240
#	94435
#	116384
#	141416
#	177157
#	197515
#	217868
#	239567
#	283864
#
# Disc length: 4128 seconds
#
# Revision: 1
# Processed by: cddbd v1.5.1PL2 Copyright (c) Steve Scherf et al.
# Submitted via: audiograbber 1.83.01
#
DISCID=9f101e0b
DTITLE=The Eric Steckel Band - Havana
DYEAR=2006
DGENRE=Blues
TTITLE0=San-Ho-Zay
TTITLE1=Radio Blues
TTITLE2=Espirita
TTITLE3=Me and my Guitar
TTITLE4=Phillips Highway
TTITLE5=The Thrill is Gone
TTITLE6=Deep Fried
TTITLE7=Jaywalkin
TTITLE8=Hey Sister
TTITLE9=Little Wing
TTITLE10=All Your Love
EXTD=
EXTT0=
EXTT1=
EXTT2=
EXTT3=
EXTT4=
EXTT5=
EXTT6=
EXTT7=
EXTT8=
EXTT9=
EXTT10=
PLAYORDER=
